<mxfile host="app.diagrams.net" modified="2023-12-30T09:06:41.442Z" agent="Mozilla/5.0 (Windows NT 10.0; Win64; x64) AppleWebKit/537.36 (KHTML, like Gecko) Chrome/120.0.0.0 Safari/537.36" etag="FZRDVLac_NsA-kE3Oke3" version="22.1.16" type="device">
  <diagram id="prtHgNgQTEPvFCAcTncT" name="Page-1">
    <mxGraphModel dx="1050" dy="522" grid="1" gridSize="10" guides="1" tooltips="1" connect="1" arrows="1" fold="1" page="1" pageScale="1" pageWidth="827" pageHeight="1169" math="0" shadow="0">
      <root>
        <mxCell id="0" />
        <mxCell id="1" parent="0" />
        <mxCell id="kUAr3tGx4ollu1xObWtT-17" value="" style="rounded=0;whiteSpace=wrap;html=1;" vertex="1" parent="1">
          <mxGeometry x="30" y="30" width="790" height="510" as="geometry" />
        </mxCell>
        <mxCell id="kUAr3tGx4ollu1xObWtT-10" style="edgeStyle=orthogonalEdgeStyle;rounded=0;orthogonalLoop=1;jettySize=auto;html=1;exitX=0.5;exitY=1;exitDx=0;exitDy=0;entryX=0.5;entryY=0;entryDx=0;entryDy=0;" edge="1" parent="1" source="kUAr3tGx4ollu1xObWtT-1" target="kUAr3tGx4ollu1xObWtT-3">
          <mxGeometry relative="1" as="geometry" />
        </mxCell>
        <mxCell id="kUAr3tGx4ollu1xObWtT-11" style="edgeStyle=orthogonalEdgeStyle;rounded=0;orthogonalLoop=1;jettySize=auto;html=1;exitX=0.5;exitY=1;exitDx=0;exitDy=0;entryX=0.5;entryY=0;entryDx=0;entryDy=0;" edge="1" parent="1" source="kUAr3tGx4ollu1xObWtT-1" target="kUAr3tGx4ollu1xObWtT-4">
          <mxGeometry relative="1" as="geometry" />
        </mxCell>
        <mxCell id="kUAr3tGx4ollu1xObWtT-12" style="edgeStyle=orthogonalEdgeStyle;rounded=0;orthogonalLoop=1;jettySize=auto;html=1;exitX=0.5;exitY=1;exitDx=0;exitDy=0;entryX=0.5;entryY=0;entryDx=0;entryDy=0;" edge="1" parent="1" source="kUAr3tGx4ollu1xObWtT-1" target="kUAr3tGx4ollu1xObWtT-2">
          <mxGeometry relative="1" as="geometry" />
        </mxCell>
        <mxCell id="kUAr3tGx4ollu1xObWtT-14" style="edgeStyle=orthogonalEdgeStyle;rounded=0;orthogonalLoop=1;jettySize=auto;html=1;exitX=0.5;exitY=1;exitDx=0;exitDy=0;entryX=0.5;entryY=0;entryDx=0;entryDy=0;" edge="1" parent="1" source="kUAr3tGx4ollu1xObWtT-1" target="kUAr3tGx4ollu1xObWtT-7">
          <mxGeometry relative="1" as="geometry" />
        </mxCell>
        <mxCell id="kUAr3tGx4ollu1xObWtT-16" style="edgeStyle=orthogonalEdgeStyle;rounded=0;orthogonalLoop=1;jettySize=auto;html=1;exitX=0.5;exitY=1;exitDx=0;exitDy=0;entryX=0.5;entryY=0;entryDx=0;entryDy=0;" edge="1" parent="1" source="kUAr3tGx4ollu1xObWtT-1" target="kUAr3tGx4ollu1xObWtT-5">
          <mxGeometry relative="1" as="geometry" />
        </mxCell>
        <mxCell id="kUAr3tGx4ollu1xObWtT-1" value="Home Page&lt;br&gt;/" style="rounded=0;whiteSpace=wrap;html=1;" vertex="1" parent="1">
          <mxGeometry x="363" y="108" width="120" height="60" as="geometry" />
        </mxCell>
        <mxCell id="kUAr3tGx4ollu1xObWtT-2" value="Education Page&lt;br&gt;/education" style="rounded=0;whiteSpace=wrap;html=1;" vertex="1" parent="1">
          <mxGeometry x="93" y="250" width="120" height="60" as="geometry" />
        </mxCell>
        <mxCell id="kUAr3tGx4ollu1xObWtT-3" value="Projects Page&lt;br&gt;/projects" style="rounded=0;whiteSpace=wrap;html=1;" vertex="1" parent="1">
          <mxGeometry x="361" y="250" width="120" height="60" as="geometry" />
        </mxCell>
        <mxCell id="kUAr3tGx4ollu1xObWtT-4" value="Experience Page&lt;br&gt;/experience" style="rounded=0;whiteSpace=wrap;html=1;" vertex="1" parent="1">
          <mxGeometry x="227" y="250" width="120" height="60" as="geometry" />
        </mxCell>
        <mxCell id="kUAr3tGx4ollu1xObWtT-5" value="Contact Me Page&lt;br&gt;/contact" style="rounded=0;whiteSpace=wrap;html=1;" vertex="1" parent="1">
          <mxGeometry x="491" y="250" width="120" height="60" as="geometry" />
        </mxCell>
        <mxCell id="kUAr3tGx4ollu1xObWtT-15" style="edgeStyle=orthogonalEdgeStyle;rounded=0;orthogonalLoop=1;jettySize=auto;html=1;exitX=0.5;exitY=1;exitDx=0;exitDy=0;entryX=0.5;entryY=0;entryDx=0;entryDy=0;" edge="1" parent="1" source="kUAr3tGx4ollu1xObWtT-7" target="kUAr3tGx4ollu1xObWtT-8">
          <mxGeometry relative="1" as="geometry">
            <mxPoint x="677" y="309" as="sourcePoint" />
            <mxPoint x="680" y="360" as="targetPoint" />
          </mxGeometry>
        </mxCell>
        <mxCell id="kUAr3tGx4ollu1xObWtT-7" value="Blog Summary Page&lt;br&gt;/blogs" style="rounded=0;whiteSpace=wrap;html=1;" vertex="1" parent="1">
          <mxGeometry x="632" y="249" width="120" height="60" as="geometry" />
        </mxCell>
        <mxCell id="kUAr3tGx4ollu1xObWtT-8" value="Blog Content pages&lt;br&gt;/blogs/{id}" style="rounded=0;whiteSpace=wrap;html=1;" vertex="1" parent="1">
          <mxGeometry x="632" y="376" width="120" height="60" as="geometry" />
        </mxCell>
      </root>
    </mxGraphModel>
  </diagram>
</mxfile>
